<svg width="32" height="32" viewBox="0 0 32 32" fill="none" xmlns="http://www.w3.org/2000/svg">
<path d="M1 20.3333L9.0597 18V23L1 25.4771V20.3333Z" fill="#033B9E"/>
<path d="M9.0597 15.6667L18.9104 12.6667V15.6667V17.3333L9.0597 20.3333V15.6667Z" fill="#033B9E"/>
<path d="M19.3582 10L31 6.33334V9.33334V11.6667L19.3582 15V12V10Z" fill="#033B9E"/>
<path d="M1 15L9.0597 12.6667V17.6667L1 20.1438V15Z" fill="#EDEDED"/>
<path d="M9.0597 10.3333L18.9104 7.33334V10.3333V12L9.0597 15V10.3333Z" fill="#EDEDED"/>
<path d="M19.3582 4.66667L31 1V4V6.33334L19.3582 9.66667V6.66667V4.66667Z" fill="#EDEDED"/>
<path d="M1 26L12.6418 22V27.6666L1 30.6666V26Z" fill="#E53935"/>
<path d="M9.50746 21L22.9403 17V20V21.6667L9.50746 25.6667V21Z" fill="#E53935"/>
<path d="M19.3582 15.6667L31 12V15V16.6667L19.3582 20V17.6667V15.6667Z" fill="#E53935"/>
<path d="M9.0597 27C9.0597 26.6667 9.14925 26 9.50746 26C9.86567 26 18.6119 23.3333 22.9403 22C23.1133 21.9356 23.2963 21.8115 23.2105 21.6667M9.0597 27C10.1045 26.8889 12.2836 26.7333 12.6418 27C12.7924 27.1121 12.8428 27.2282 12.8394 27.3333M9.0597 27C9.0597 25.9914 9.0597 24.6136 9.0597 23.1883M18.9104 20.6239C18.5206 20.9957 18.9975 21.2438 19.3582 21.3333H22.4925C22.9444 21.4455 23.1482 21.5615 23.2105 21.6667M18.9104 20.6239C19.0046 20.5341 19.1492 20.4371 19.3582 20.3333L23.2105 19.2303M18.9104 20.6239L19.048 17.6667M18.9104 20.6667L19.1662 15.1264M19.1662 15.1264L31 11.7326M19.1662 15.1264L19.2962 12.3333M19.1662 15.1264L19.048 17.6667M31 11.7326V17L23.2105 19.2303M31 11.7326V6.66667M19.2962 12.3333L19.3117 12L19.3582 11C19 10.2 19.5075 9.77778 19.806 9.66667L31 6.46525V6.66667M19.2962 12.3333L19.048 12.4094M9.0597 16.6667C9.0597 15.6 9.35821 15.3333 9.50746 15.3333L19.048 12.4094M9.0597 16.6667C9.0597 16.897 9.0597 17.3699 9.0597 18M9.0597 16.6667V12.6667M9.0597 20.7691L19.048 17.6667M9.0597 20.7691C9.0597 19.7195 9.0597 18.7487 9.0597 18M9.0597 20.7691C9.0597 21.5514 9.0597 22.3776 9.0597 23.1883M9.0597 18L1 20.3333M1 20.3333C1 20.6667 1 21.9333 1 24.3333C1 24.7619 1 25.211 1 25.6667M1 20.3333V15L9.0597 12.6667M1 25.6667C1 27.7625 1 29.996 1 31L12.6418 27.6667C12.7283 27.6023 12.8348 27.4782 12.8394 27.3333M1 25.6667L9.0597 23.1883M9.0597 12.6667V10L19.048 7.33334M19.048 7.33334V12V12.4094M19.048 7.33334L19.1662 4.33333L31 1V6.66667M12.8394 27.3333V25.2116L23.2105 21.6667M23.2105 21.6667V19.2303" stroke="white"/>
</svg>
